<svg width="16" height="16" viewBox="0 0 16 16" fill="none" xmlns="http://www.w3.org/2000/svg">
<mask id="path-1-inside-1_8_60972" fill="white">
<path d="M15.9704 15.0474L14.5865 12.3662L15.122 12.1571C15.2626 12.1022 15.3806 11.9433 15.3907 11.7954L15.4363 11.1231C15.4439 11.0105 15.5022 10.8348 15.5637 10.7394L15.9305 10.1693C16.0113 10.0439 16.0113 9.84754 15.9306 9.72216L15.5637 9.15204C15.5023 9.05662 15.4439 8.88084 15.4363 8.76828L15.3907 8.09599C15.3821 7.96941 15.2942 7.835 15.181 7.76441V1.53163C15.181 0.960411 14.7061 0.495728 14.1223 0.495728H1.05866C0.474913 0.495728 0 0.960411 0 1.53163V10.4049C0 10.9761 0.474913 11.4407 1.05866 11.4407H9.38563L9.40968 11.7955C9.41973 11.9433 9.5377 12.1022 9.67834 12.1571L10.1811 12.3534L8.79053 15.0474C8.74774 15.1303 8.75921 15.1803 8.77639 15.2076C8.78726 15.2249 8.8139 15.2539 8.87001 15.2539C8.89807 15.2539 8.93039 15.2464 8.96609 15.2319L10.1052 14.7652C10.1332 14.7537 10.1665 14.7477 10.2016 14.7477C10.2853 14.7477 10.3705 14.7815 10.4188 14.8339L10.966 15.4275C11.0116 15.477 11.0681 15.5042 11.1249 15.5042C11.2 15.5042 11.2673 15.4568 11.3049 15.3774L12.377 13.1146C12.3793 13.1146 12.3816 13.1146 12.384 13.1145L13.456 15.3774C13.4937 15.4568 13.561 15.5042 13.6361 15.5042C13.6929 15.5042 13.7494 15.477 13.795 15.4274L14.3421 14.8339C14.3904 14.7815 14.4757 14.7477 14.5594 14.7477C14.5943 14.7477 14.6277 14.7537 14.6557 14.7652L15.7948 15.2319C15.8305 15.2464 15.8629 15.2539 15.8909 15.2539C15.9471 15.2539 15.9737 15.2248 15.9845 15.2076C16.0018 15.1803 16.0132 15.1303 15.9704 15.0474ZM1.05866 1.53163H14.1223L14.1223 7.21618L13.7085 6.72902C13.6329 6.6401 13.4946 6.58037 13.3643 6.58037C13.3326 6.58037 13.3022 6.58393 13.274 6.59094L12.6062 6.75727C12.4998 6.78374 12.3005 6.78374 12.1941 6.75727L11.5263 6.59094C11.4981 6.58393 11.4677 6.58037 11.436 6.58037C11.3057 6.58037 11.1674 6.6401 11.0918 6.72902L10.6515 7.24741C10.5779 7.33415 10.4252 7.44271 10.3182 7.4845L9.67842 7.73438C9.53774 7.78932 9.41974 7.94813 9.40972 8.09599L9.36411 8.76828C9.3565 8.88092 9.29817 9.05662 9.23672 9.15204L8.86986 9.72216C8.78915 9.8475 8.78915 10.0439 8.86986 10.1693L9.02145 10.4048H1.05866V1.53163ZM12.4001 12.1479C11.1571 12.1479 10.1494 11.162 10.1494 9.94572C10.1494 8.72943 11.1571 7.7435 12.4001 7.7435C13.6432 7.7435 14.6509 8.72943 14.6509 9.94572C14.6509 11.162 13.6432 12.1479 12.4001 12.1479Z"/>
</mask>
<path d="M15.9704 15.0474L14.5865 12.3662L15.122 12.1571C15.2626 12.1022 15.3806 11.9433 15.3907 11.7954L15.4363 11.1231C15.4439 11.0105 15.5022 10.8348 15.5637 10.7394L15.9305 10.1693C16.0113 10.0439 16.0113 9.84754 15.9306 9.72216L15.5637 9.15204C15.5023 9.05662 15.4439 8.88084 15.4363 8.76828L15.3907 8.09599C15.3821 7.96941 15.2942 7.835 15.181 7.76441V1.53163C15.181 0.960411 14.7061 0.495728 14.1223 0.495728H1.05866C0.474913 0.495728 0 0.960411 0 1.53163V10.4049C0 10.9761 0.474913 11.4407 1.05866 11.4407H9.38563L9.40968 11.7955C9.41973 11.9433 9.5377 12.1022 9.67834 12.1571L10.1811 12.3534L8.79053 15.0474C8.74774 15.1303 8.75921 15.1803 8.77639 15.2076C8.78726 15.2249 8.8139 15.2539 8.87001 15.2539C8.89807 15.2539 8.93039 15.2464 8.96609 15.2319L10.1052 14.7652C10.1332 14.7537 10.1665 14.7477 10.2016 14.7477C10.2853 14.7477 10.3705 14.7815 10.4188 14.8339L10.966 15.4275C11.0116 15.477 11.0681 15.5042 11.1249 15.5042C11.2 15.5042 11.2673 15.4568 11.3049 15.3774L12.377 13.1146C12.3793 13.1146 12.3816 13.1146 12.384 13.1145L13.456 15.3774C13.4937 15.4568 13.561 15.5042 13.6361 15.5042C13.6929 15.5042 13.7494 15.477 13.795 15.4274L14.3421 14.8339C14.3904 14.7815 14.4757 14.7477 14.5594 14.7477C14.5943 14.7477 14.6277 14.7537 14.6557 14.7652L15.7948 15.2319C15.8305 15.2464 15.8629 15.2539 15.8909 15.2539C15.9471 15.2539 15.9737 15.2248 15.9845 15.2076C16.0018 15.1803 16.0132 15.1303 15.9704 15.0474ZM1.05866 1.53163H14.1223L14.1223 7.21618L13.7085 6.72902C13.6329 6.6401 13.4946 6.58037 13.3643 6.58037C13.3326 6.58037 13.3022 6.58393 13.274 6.59094L12.6062 6.75727C12.4998 6.78374 12.3005 6.78374 12.1941 6.75727L11.5263 6.59094C11.4981 6.58393 11.4677 6.58037 11.436 6.58037C11.3057 6.58037 11.1674 6.6401 11.0918 6.72902L10.6515 7.24741C10.5779 7.33415 10.4252 7.44271 10.3182 7.4845L9.67842 7.73438C9.53774 7.78932 9.41974 7.94813 9.40972 8.09599L9.36411 8.76828C9.3565 8.88092 9.29817 9.05662 9.23672 9.15204L8.86986 9.72216C8.78915 9.8475 8.78915 10.0439 8.86986 10.1693L9.02145 10.4048H1.05866V1.53163ZM12.4001 12.1479C11.1571 12.1479 10.1494 11.162 10.1494 9.94572C10.1494 8.72943 11.1571 7.7435 12.4001 7.7435C13.6432 7.7435 14.6509 8.72943 14.6509 9.94572C14.6509 11.162 13.6432 12.1479 12.4001 12.1479Z" fill="white"/>
<path d="M15.9704 15.0474L16.8792 14.5785L16.8791 14.5783L15.9704 15.0474ZM14.5865 12.3662L14.2145 11.4136L13.1571 11.8265L13.6778 12.8352L14.5865 12.3662ZM15.122 12.1571L15.4939 13.1096L15.4941 13.1096L15.122 12.1571ZM15.3907 11.7954L14.3704 11.7262L14.3704 11.7263L15.3907 11.7954ZM15.4363 11.1231L14.416 11.0539L14.416 11.0539L15.4363 11.1231ZM15.5637 10.7394L16.4234 11.2931L16.4236 11.2927L15.5637 10.7394ZM15.9305 10.1693L15.0708 9.61564L15.0706 9.61593L15.9305 10.1693ZM15.9306 9.72216L16.7905 9.16882L16.7905 9.16878L15.9306 9.72216ZM15.5637 9.15204L14.7037 9.70524L14.7038 9.70542L15.5637 9.15204ZM15.4363 8.76828L14.416 8.83744L14.4161 8.83757L15.4363 8.76828ZM15.3907 8.09599L16.411 8.02683L16.411 8.02659L15.3907 8.09599ZM15.181 7.76441H14.1584V8.33203L14.6401 8.63225L15.181 7.76441ZM9.38563 11.4407L10.4059 11.3716L10.3413 10.4182H9.38563V11.4407ZM9.40968 11.7955L8.38943 11.8646L8.38944 11.8649L9.40968 11.7955ZM9.67834 12.1571L9.30628 13.1096L9.3064 13.1096L9.67834 12.1571ZM10.1811 12.3534L11.0898 12.8225L11.6105 11.8138L10.5531 11.4009L10.1811 12.3534ZM8.79053 15.0474L7.88185 14.5783L7.88175 14.5785L8.79053 15.0474ZM8.77639 15.2076L9.64246 14.6639L9.64189 14.6629L8.77639 15.2076ZM8.96609 15.2319L9.3531 16.1784L9.35373 16.1781L8.96609 15.2319ZM10.1052 14.7652L9.71766 13.8189L9.71756 13.8189L10.1052 14.7652ZM10.4188 14.8339L11.1707 14.1408L11.1703 14.1404L10.4188 14.8339ZM10.966 15.4275L11.718 14.7345L11.7179 14.7344L10.966 15.4275ZM11.3049 15.3774L12.229 15.8153L12.229 15.8152L11.3049 15.3774ZM12.377 13.1146L12.3611 12.0921L11.7252 12.102L11.4529 12.6768L12.377 13.1146ZM12.384 13.1145L13.3081 12.6767L13.0262 12.0818L12.3681 12.0921L12.384 13.1145ZM13.456 15.3774L14.3802 14.9397L14.3802 14.9395L13.456 15.3774ZM13.795 15.4274L13.0431 14.7343L13.0427 14.7347L13.795 15.4274ZM14.3421 14.8339L13.5906 14.1404L13.5903 14.1408L14.3421 14.8339ZM14.6557 14.7652L15.0434 13.8189L15.0433 13.8189L14.6557 14.7652ZM15.7948 15.2319L15.4072 16.1781L15.4078 16.1784L15.7948 15.2319ZM15.9845 15.2076L15.1196 14.6621L15.119 14.663L15.9845 15.2076ZM1.05866 1.53163V0.509034H0.0360718V1.53163H1.05866ZM14.1223 1.53163L15.1448 1.53161L15.1448 0.509034H14.1223V1.53163ZM14.1223 7.21618L13.343 7.87823L15.145 9.9995L15.1449 7.21617L14.1223 7.21618ZM13.7085 6.72902L14.4878 6.06697L14.4878 6.06689L13.7085 6.72902ZM13.274 6.59094L13.0274 5.59852L13.0269 5.59865L13.274 6.59094ZM12.6062 6.75727L12.853 7.74961L12.8533 7.74955L12.6062 6.75727ZM12.1941 6.75727L11.947 7.74955L11.9473 7.74963L12.1941 6.75727ZM11.5263 6.59094L11.7735 5.59866L11.7729 5.59852L11.5263 6.59094ZM11.0918 6.72902L10.3126 6.06689L10.3125 6.067L11.0918 6.72902ZM10.6515 7.24741L9.87213 6.58539L9.87188 6.58569L10.6515 7.24741ZM10.3182 7.4845L9.9462 6.53196L9.94612 6.53199L10.3182 7.4845ZM9.67842 7.73438L10.0504 8.68692L10.0505 8.6869L9.67842 7.73438ZM9.40972 8.09599L10.43 8.1652L10.43 8.16512L9.40972 8.09599ZM9.36411 8.76828L8.34386 8.69907L8.34384 8.69937L9.36411 8.76828ZM9.23672 9.15204L8.37698 8.59836L8.37677 8.59869L9.23672 9.15204ZM8.86986 9.72216L9.72962 10.2758L9.72981 10.2755L8.86986 9.72216ZM8.86986 10.1693L9.7298 9.61592L9.72962 9.61564L8.86986 10.1693ZM9.02145 10.4048V11.4274H10.8955L9.88139 9.85149L9.02145 10.4048ZM1.05866 10.4048H0.0360718V11.4274H1.05866V10.4048ZM14.6509 9.94572L13.6283 9.94572L13.6283 9.94575L14.6509 9.94572ZM16.8791 14.5783L15.4952 11.8972L13.6778 12.8352L15.0618 15.5164L16.8791 14.5783ZM14.9584 13.3187L15.4939 13.1096L14.75 11.2045L14.2145 11.4136L14.9584 13.3187ZM15.4941 13.1096C15.775 12.9999 15.9856 12.8102 16.1262 12.6209C16.2662 12.4325 16.39 12.1725 16.4109 11.8646L14.3704 11.7263C14.3812 11.5663 14.4411 11.4596 14.4844 11.4013C14.5284 11.3422 14.6096 11.2594 14.7499 11.2046L15.4941 13.1096ZM16.4109 11.8647L16.4565 11.1924L14.416 11.0539L14.3704 11.7262L16.4109 11.8647ZM16.4565 11.1924C16.4552 11.2124 16.4532 11.2269 16.4519 11.235C16.4506 11.2435 16.4495 11.2487 16.449 11.2507C16.4483 11.254 16.4486 11.2522 16.4503 11.2471C16.452 11.242 16.4529 11.2402 16.4516 11.2431C16.4513 11.2438 16.443 11.2627 16.4234 11.2931L14.704 10.1857C14.6107 10.3306 14.5483 10.4852 14.5093 10.6026C14.4704 10.7197 14.4277 10.8814 14.416 11.0539L16.4565 11.1924ZM16.4236 11.2927L16.7905 10.7226L15.0706 9.61593L14.7037 10.1861L16.4236 11.2927ZM16.7903 10.7229C16.9564 10.4649 17.0137 10.1831 17.0137 9.94579C17.0137 9.70842 16.9565 9.42677 16.7905 9.16882L15.0706 10.2755C14.9853 10.1429 14.9685 10.0222 14.9685 9.94567C14.9685 9.86919 14.9854 9.74831 15.0708 9.61564L16.7903 10.7229ZM16.7905 9.16878L16.4236 8.59865L14.7038 9.70542L15.0707 10.2755L16.7905 9.16878ZM16.4237 8.59883C16.4343 8.6153 16.4412 8.62779 16.4449 8.63483C16.4488 8.64216 16.451 8.64686 16.4517 8.64856C16.453 8.65136 16.4521 8.64951 16.4503 8.64438C16.4486 8.63923 16.4483 8.63733 16.4491 8.64061C16.4495 8.64257 16.4506 8.64783 16.4519 8.6563C16.4532 8.66442 16.4552 8.67896 16.4565 8.699L14.4161 8.83757C14.4278 9.01012 14.4705 9.17181 14.5093 9.2888C14.5483 9.40608 14.6106 9.56054 14.7037 9.70524L16.4237 8.59883ZM16.4566 8.69913L16.411 8.02683L14.3705 8.16514L14.416 8.83744L16.4566 8.69913ZM16.411 8.02659C16.3773 7.5312 16.0769 7.11786 15.7219 6.89657L14.6401 8.63225C14.5561 8.57992 14.5006 8.51804 14.4633 8.45961C14.4272 8.40309 14.38 8.30523 14.3705 8.16538L16.411 8.02659ZM16.2036 7.76441V1.53163H14.1584V7.76441H16.2036ZM16.2036 1.53163C16.2036 0.374796 15.2498 -0.526865 14.1223 -0.526865V1.51832C14.1316 1.51832 14.1379 1.52001 14.1424 1.52189C14.1476 1.52404 14.1521 1.52711 14.1554 1.53037C14.1587 1.53363 14.1595 1.53568 14.1593 1.53511C14.1591 1.53476 14.1588 1.534 14.1586 1.53296C14.1584 1.53185 14.1584 1.53127 14.1584 1.53163H16.2036ZM14.1223 -0.526865H1.05866V1.51832H14.1223V-0.526865ZM1.05866 -0.526865C-0.0687686 -0.526865 -1.02259 0.374796 -1.02259 1.53163H1.02259C1.02259 1.53127 1.02261 1.53185 1.02238 1.53296C1.02216 1.534 1.02188 1.53476 1.02173 1.53511C1.02148 1.53568 1.02227 1.53363 1.0256 1.53037C1.02894 1.52711 1.03341 1.52404 1.03859 1.52189C1.04314 1.52001 1.04935 1.51832 1.05866 1.51832L1.05866 -0.526865ZM-1.02259 1.53163V10.4049H1.02259V1.53163H-1.02259ZM-1.02259 10.4049C-1.02259 11.5618 -0.0687211 12.4633 1.05866 12.4633V10.4182C1.04934 10.4182 1.04312 10.4165 1.03857 10.4146C1.03338 10.4124 1.02892 10.4094 1.02558 10.4061C1.02226 10.4028 1.02147 10.4008 1.02172 10.4014C1.02188 10.4017 1.02216 10.4025 1.02238 10.4035C1.02261 10.4047 1.02259 10.4052 1.02259 10.4049H-1.02259ZM1.05866 12.4633H9.38563V10.4182H1.05866V12.4633ZM8.36538 11.5099L8.38943 11.8646L10.4299 11.7263L10.4059 11.3716L8.36538 11.5099ZM8.38944 11.8649C8.41037 12.1726 8.53419 12.4325 8.67419 12.621C8.81477 12.8102 9.02538 12.9999 9.30628 13.1096L10.0504 11.2046C10.1907 11.2594 10.272 11.3422 10.3159 11.4013C10.3592 11.4596 10.419 11.5662 10.4299 11.7261L8.38944 11.8649ZM9.3064 13.1096L9.80918 13.306L10.5531 11.4009L10.0503 11.2045L9.3064 13.1096ZM9.27245 11.8844L7.88185 14.5783L9.6992 15.5164L11.0898 12.8225L9.27245 11.8844ZM7.88175 14.5785C7.71479 14.9021 7.65689 15.3485 7.91089 15.7522L9.64189 14.6629C9.73414 14.8095 9.78575 14.9828 9.78348 15.1613C9.78134 15.3297 9.73219 15.4525 9.6993 15.5162L7.88175 14.5785ZM7.91031 15.7513C8.06128 15.9917 8.38192 16.2764 8.87001 16.2764V14.2313C9.02826 14.2313 9.19648 14.2751 9.34873 14.3704C9.49301 14.4607 9.58574 14.5735 9.64246 14.6639L7.91031 15.7513ZM8.87001 16.2764C9.07057 16.2764 9.23772 16.2256 9.3531 16.1784L8.57907 14.2853C8.62306 14.2673 8.72556 14.2313 8.87001 14.2313V16.2764ZM9.35373 16.1781L10.4928 15.7115L9.71756 13.8189L8.57844 14.2856L9.35373 16.1781ZM10.4927 15.7115C10.38 15.7577 10.2788 15.7703 10.2016 15.7703V13.7251C10.0543 13.7251 9.88644 13.7498 9.71766 13.8189L10.4927 15.7115ZM10.2016 15.7703C10.1097 15.7703 10.0241 15.7525 9.94619 15.7216C9.87168 15.692 9.76698 15.6354 9.66726 15.5273L11.1703 14.1404C10.8946 13.8416 10.5167 13.7251 10.2016 13.7251V15.7703ZM9.66692 15.527L10.2141 16.1206L11.7179 14.7344L11.1707 14.1408L9.66692 15.527ZM10.214 16.1205C10.4146 16.3381 10.73 16.5268 11.1249 16.5268V14.4816C11.4062 14.4816 11.6086 14.6158 11.718 14.7345L10.214 16.1205ZM11.1249 16.5268C11.6724 16.5268 12.058 16.1762 12.229 15.8153L10.3808 14.9395C10.4766 14.7374 10.7276 14.4816 11.1249 14.4816V16.5268ZM12.229 15.8152L13.3011 13.5524L11.4529 12.6768L10.3808 14.9395L12.229 15.8152ZM12.3929 14.1371C12.3894 14.1371 12.3865 14.1371 12.3883 14.1371C12.3889 14.1371 12.394 14.1371 12.3998 14.137L12.3681 12.0921C12.3716 12.092 12.3744 12.092 12.3726 12.092C12.3721 12.092 12.3669 12.092 12.3611 12.0921L12.3929 14.1371ZM11.4598 13.5524L12.5319 15.8152L14.3802 14.9395L13.3081 12.6767L11.4598 13.5524ZM12.5319 15.8151C12.703 16.1764 13.0888 16.5268 13.6361 16.5268V14.4816C14.0331 14.4816 14.2843 14.7372 14.3802 14.9397L12.5319 15.8151ZM13.6361 16.5268C14.0312 16.5268 14.3466 16.338 14.5472 16.1202L13.0427 14.7347C13.1521 14.616 13.3546 14.4816 13.6361 14.4816V16.5268ZM14.5468 16.1206L15.094 15.527L13.5903 14.1408L13.0431 14.7343L14.5468 16.1206ZM15.0936 15.5274C14.994 15.6353 14.8894 15.692 14.8149 15.7216C14.7369 15.7525 14.6513 15.7703 14.5594 15.7703V13.7251C14.2441 13.7251 13.8662 13.8417 13.5906 14.1404L15.0936 15.5274ZM14.5594 15.7703C14.4822 15.7703 14.381 15.7577 14.2682 15.7115L15.0433 13.8189C14.8744 13.7497 14.7065 13.7251 14.5594 13.7251V15.7703ZM14.2681 15.7115L15.4072 16.1781L16.1825 14.2856L15.0434 13.8189L14.2681 15.7115ZM15.4078 16.1784C15.5232 16.2256 15.6904 16.2764 15.8909 16.2764V14.2313C16.0354 14.2313 16.1379 14.2673 16.1819 14.2853L15.4078 16.1784ZM15.8909 16.2764C16.3798 16.2764 16.6999 15.9909 16.8501 15.7521L15.119 14.663C15.1752 14.5737 15.2676 14.4609 15.4119 14.3706C15.5642 14.2752 15.7325 14.2313 15.8909 14.2313V16.2764ZM16.8495 15.753C17.1044 15.3489 17.0461 14.9019 16.8792 14.5785L15.0617 15.5162C15.0288 15.4525 14.9796 15.3297 14.9775 15.1611C14.9752 14.9825 15.027 14.8089 15.1196 14.6621L16.8495 15.753ZM1.05866 2.55422H14.1223V0.509034H1.05866V2.55422ZM13.0997 1.53164L13.0997 7.21619L15.1449 7.21617L15.1448 1.53161L13.0997 1.53164ZM14.9017 6.55413L14.4878 6.06697L12.9291 7.39107L13.343 7.87823L14.9017 6.55413ZM14.4878 6.06689C14.1937 5.72082 13.7552 5.55778 13.3643 5.55778V7.60296C13.2789 7.60296 13.2086 7.58478 13.1515 7.56014C13.0973 7.53675 13.0122 7.48886 12.9292 7.39115L14.4878 6.06689ZM13.3643 5.55778C13.2568 5.55778 13.1431 5.56978 13.0274 5.59852L13.5206 7.58335C13.4613 7.59808 13.4084 7.60296 13.3643 7.60296V5.55778ZM13.0269 5.59865L12.359 5.76499L12.8533 7.74955L13.5212 7.58322L13.0269 5.59865ZM12.3593 5.76493C12.381 5.75951 12.3966 5.75684 12.404 5.75569C12.4119 5.75445 12.4162 5.75405 12.4164 5.75403C12.4169 5.75398 12.4154 5.75413 12.412 5.75428C12.4087 5.75443 12.4046 5.75453 12.4001 5.75453C12.3957 5.75453 12.3916 5.75443 12.3883 5.75428C12.3849 5.75413 12.3834 5.75398 12.3838 5.75403C12.3841 5.75405 12.3884 5.75444 12.3963 5.75568C12.4036 5.75683 12.4192 5.7595 12.4409 5.76491L11.9473 7.74963C12.1148 7.79128 12.2841 7.79971 12.4001 7.79971C12.5161 7.79971 12.6856 7.79128 12.853 7.74961L12.3593 5.76493ZM12.4413 5.76499L11.7735 5.59866L11.2792 7.58321L11.947 7.74955L12.4413 5.76499ZM11.7729 5.59852C11.6572 5.56978 11.5435 5.55778 11.436 5.55778V7.60296C11.392 7.60296 11.339 7.59808 11.2797 7.58335L11.7729 5.59852ZM11.436 5.55778C11.0451 5.55778 10.6066 5.72085 10.3126 6.06689L11.8711 7.39115C11.7881 7.48881 11.703 7.53672 11.6488 7.56013C11.5917 7.58479 11.5214 7.60296 11.436 7.60296V5.55778ZM10.3125 6.067L9.87213 6.58539L11.4309 7.90942L11.8712 7.39104L10.3125 6.067ZM9.87188 6.58569C9.88452 6.57079 9.89439 6.56064 9.89986 6.55521C9.90557 6.54954 9.90922 6.5463 9.91035 6.54531C9.91214 6.54375 9.90996 6.54573 9.90471 6.54947C9.89948 6.55319 9.89668 6.55475 9.8983 6.55382C9.89939 6.5532 9.90331 6.55099 9.91011 6.54766C9.91663 6.54447 9.9288 6.53876 9.9462 6.53196L10.6901 8.43704C10.8487 8.37511 10.9893 8.28777 11.09 8.21615C11.1903 8.14485 11.3199 8.04014 11.4311 7.90912L9.87188 6.58569ZM9.94612 6.53199L9.30638 6.78187L10.0505 8.6869L10.6902 8.43702L9.94612 6.53199ZM9.30644 6.78184C9.02556 6.89153 8.81491 7.08117 8.67427 7.27043C8.53424 7.45889 8.41033 7.71891 8.38946 8.02685L10.43 8.16512C10.4191 8.32521 10.3592 8.4319 10.3159 8.49025C10.2719 8.54941 10.1906 8.63217 10.0504 8.68692L9.30644 6.78184ZM8.38947 8.02678L8.34386 8.69907L10.3844 8.83749L10.43 8.1652L8.38947 8.02678ZM8.34384 8.69937C8.34519 8.67934 8.34717 8.66479 8.34843 8.65664C8.34975 8.64816 8.35087 8.64286 8.35132 8.64087C8.35206 8.63753 8.35178 8.63936 8.3501 8.64442C8.34842 8.64948 8.34751 8.65124 8.34881 8.64835C8.34913 8.64763 8.35741 8.62875 8.37698 8.59836L10.0964 9.70571C10.1897 9.56085 10.2521 9.40622 10.2911 9.28881C10.33 9.17165 10.3727 9.00987 10.3844 8.83719L8.34384 8.69937ZM8.37677 8.59869L8.00992 9.16882L9.72981 10.2755L10.0967 9.70538L8.37677 8.59869ZM8.0101 9.16853C7.84395 9.42656 7.78674 9.70834 7.78674 9.94572C7.78674 10.1831 7.84395 10.4649 8.0101 10.7229L9.72962 9.61564C9.81507 9.74833 9.83192 9.86923 9.83192 9.94572C9.83192 10.0222 9.81507 10.1431 9.72962 10.2758L8.0101 9.16853ZM8.00992 10.7226L8.16151 10.9582L9.88139 9.85149L9.7298 9.61592L8.00992 10.7226ZM9.02145 9.38225H1.05866V11.4274H9.02145V9.38225ZM2.08126 10.4048V1.53163H0.0360718V10.4048H2.08126ZM12.4001 11.1253C11.7008 11.1253 11.172 10.5764 11.172 9.94572H9.12684C9.12684 11.7476 10.6135 13.1705 12.4001 13.1705V11.1253ZM11.172 9.94572C11.172 9.31508 11.7008 8.76609 12.4001 8.76609V6.7209C10.6135 6.7209 9.12684 8.14379 9.12684 9.94572H11.172ZM12.4001 8.76609C13.0996 8.76609 13.6283 9.31512 13.6283 9.94572H15.6735C15.6735 8.14375 14.1868 6.7209 12.4001 6.7209V8.76609ZM13.6283 9.94575C13.6283 10.5763 13.0996 11.1253 12.4001 11.1253V13.1705C14.1868 13.1705 15.6735 11.7477 15.6735 9.94569L13.6283 9.94575Z" fill="white" mask="url(#path-1-inside-1_8_60972)"/>
<path d="M2.50146 3.62256H12.5071" stroke="white" stroke-width="1.25071" stroke-linecap="round"/>
<path d="M2.50146 5.49854H12.5071" stroke="white" stroke-width="1.25071" stroke-linecap="round"/>
<path d="M2.50146 8H6.25359" stroke="white" stroke-width="1.25071" stroke-linecap="round"/>
<path fill-rule="evenodd" clip-rule="evenodd" d="M14.5865 12.3662L15.9704 15.0474C16.0132 15.1303 16.0018 15.1803 15.9845 15.2076C15.9737 15.2248 15.9471 15.2539 15.8909 15.2539C15.8629 15.2539 15.8305 15.2464 15.7948 15.2319L14.6557 14.7652C14.6277 14.7537 14.5943 14.7477 14.5594 14.7477C14.4757 14.7477 14.3904 14.7815 14.3421 14.8339L13.795 15.4274C13.7494 15.477 13.6929 15.5042 13.6361 15.5042C13.561 15.5042 13.4937 15.4568 13.456 15.3774L12.384 13.1145L12.377 13.1146L11.3049 15.3774C11.2673 15.4568 11.2 15.5042 11.1249 15.5042C11.0681 15.5042 11.0116 15.477 10.966 15.4275L10.4188 14.8339C10.3705 14.7815 10.2853 14.7477 10.2016 14.7477C10.1665 14.7477 10.1332 14.7537 10.1052 14.7652L8.96609 15.2319C8.93039 15.2464 8.89807 15.2539 8.87001 15.2539C8.8139 15.2539 8.78726 15.2249 8.77639 15.2076C8.75921 15.1803 8.74774 15.1303 8.79053 15.0474L10.1811 12.3534L9.67834 12.1571C9.5377 12.1022 9.41974 11.9433 9.40968 11.7955L9.38563 11.4407C8.95369 11.1223 8.85019 10.899 9.02145 10.4048L8.86986 10.1693C8.78915 10.0439 8.78915 9.8475 8.86986 9.72216L9.23672 9.15203C9.29817 9.05661 9.3565 8.88091 9.36411 8.76828L9.40972 8.09599C9.41974 7.94813 9.53774 7.78932 9.67842 7.73438L10.3182 7.4845C10.4252 7.44271 10.5779 7.33415 10.6515 7.2474L11.0918 6.72902C11.1674 6.6401 11.3057 6.58037 11.436 6.58037C11.4677 6.58037 11.4981 6.58393 11.5263 6.59094L12.1941 6.75727C12.3005 6.78374 12.4998 6.78374 12.6062 6.75727L13.274 6.59094C13.3022 6.58393 13.3326 6.58037 13.3643 6.58037C13.4946 6.58037 13.6329 6.6401 13.7085 6.72902L14.1223 7.21618C14.7353 7.15171 14.9393 7.31093 15.181 7.76441C15.2942 7.835 15.3821 7.96941 15.3907 8.09599L15.4363 8.76828C15.4439 8.88084 15.5023 9.05661 15.5637 9.15203L15.9306 9.72216C16.0113 9.84754 16.0113 10.0439 15.9305 10.1693L15.5637 10.7394C15.5022 10.8348 15.4439 11.0105 15.4363 11.1231L15.3907 11.7954C15.3806 11.9433 15.2626 12.1022 15.122 12.1571L14.5865 12.3662ZM10.1494 9.94572C10.1494 11.162 11.1571 12.1479 12.4001 12.1479C13.6432 12.1479 14.6509 11.162 14.6509 9.94572C14.6509 8.72943 13.6432 7.7435 12.4001 7.7435C11.1571 7.7435 10.1494 8.72943 10.1494 9.94572Z" fill="url(#paint0_linear_8_60972)"/>
<defs>
<linearGradient id="paint0_linear_8_60972" x1="0" y1="0.495728" x2="17.0639" y2="1.82258" gradientUnits="userSpaceOnUse">
<stop stop-color="#C6FF4C"/>
<stop offset="1" stop-color="#97DE00"/>
</linearGradient>
</defs>
</svg>
