<svg width="23" height="23" viewBox="0 0 23 23" fill="none" xmlns="http://www.w3.org/2000/svg">
<path d="M21.3868 15.1425C21.4015 15.1161 21.417 15.0902 21.4332 15.0649L21.3868 15.1425ZM21.3868 15.1425C21.4435 14.8819 21.4734 14.6112 21.4734 14.3332C21.4734 14.0551 21.4435 13.7844 21.3867 13.5238L21.3868 15.1425ZM20.395 17.0858L20.2157 17.1558C20.6091 16.7992 20.9282 16.364 21.1466 15.8745C21.1434 15.9001 21.1409 15.9257 21.1392 15.9512L21.1392 15.9512L21.0804 16.8181L20.395 17.0858ZM18.0231 18.1485C18.6463 18.0765 19.2265 17.86 19.7266 17.5333L20.0151 18.0921L21.3102 20.6011L21.0308 20.4867L21.0307 20.4867C20.8913 20.4296 20.7489 20.4078 20.6199 20.4078C20.3375 20.4078 20.0097 20.5144 19.7804 20.7629L19.7801 20.7631L19.4378 21.1345L18.1942 18.5096L18.0231 18.1485ZM14.0394 20.4867L13.7601 20.6011L15.0645 18.074L15.3578 17.5059C15.8532 17.8385 16.4297 18.062 17.0501 18.1421L16.876 18.5097L15.6324 21.1345L15.2901 20.7631L15.2898 20.7628C15.0605 20.5143 14.7326 20.4078 14.4503 20.4078C14.3212 20.4078 14.1788 20.4296 14.0395 20.4867L14.0394 20.4867ZM13.982 15.8804C14.2003 16.3675 14.5185 16.8006 14.9103 17.1558L14.6846 17.0677L14.0456 16.8181L14.0173 16.4009L13.982 15.8804ZM13.9169 15.7259H13.2951H1.50592C1.44543 15.7259 1.38697 15.7194 1.33112 15.7071H1.50592H12.7795H13.9095C13.9119 15.7134 13.9144 15.7197 13.9169 15.7259ZM13.6526 14.3332C13.6526 14.6082 13.6818 14.8761 13.7374 15.1341L13.3882 14.5915L13.222 14.3332L13.6928 13.6015C13.6929 13.6014 13.6929 13.6013 13.693 13.6012C13.7091 13.5762 13.7245 13.5504 13.7391 13.5241C13.6824 13.7847 13.6526 14.0553 13.6526 14.3332ZM13.1735 14.4086L13.1736 14.4084L13.1735 14.4086ZM14.9112 11.5097C14.5175 11.8664 14.198 12.3019 13.9795 12.7917C13.9826 12.7662 13.9851 12.7407 13.9868 12.7152C13.9868 12.7151 13.9868 12.7151 13.9868 12.715L14.0456 11.8483L14.8786 11.523C14.8895 11.5187 14.9004 11.5143 14.9112 11.5097ZM13.9729 11.8767L13.9733 11.8766C13.9731 11.8766 13.973 11.8767 13.9729 11.8767L13.9729 11.8767ZM17.0885 10.5196C16.5634 10.5822 16.0691 10.7474 15.6278 10.9946C15.6315 10.9903 15.6353 10.986 15.639 10.9816C15.639 10.9816 15.6391 10.9815 15.6392 10.9814L16.2161 10.3022L17.0885 10.5196ZM19.498 10.9946C19.0568 10.7473 18.5624 10.5822 18.0373 10.5196L18.9099 10.3022L19.4495 10.9374L19.498 10.9946ZM0.782033 15.2466C0.748924 15.1638 0.730963 15.0748 0.730963 14.9833V2.42071C0.730963 2.32921 0.748925 2.24017 0.782033 2.15738V2.42071V14.9832V15.2466ZM1.33113 1.69682C1.38698 1.68452 1.44543 1.67798 1.50592 1.67798H20.0012C20.0617 1.67798 20.1201 1.68452 20.176 1.69682H20.0011H1.50592H1.33113ZM16.0648 21.6036L16.0648 21.6035L16.0648 21.6036ZM19.0052 21.6038C19.0054 21.6035 19.0056 21.6033 19.0059 21.603L19.0055 21.6035L19.0052 21.6038ZM21.1393 12.7153C21.141 12.7408 21.1435 12.7665 21.1467 12.7921C21.0324 12.5361 20.8907 12.2948 20.7251 12.072L20.7251 10.4688L20.725 2.4207L20.725 2.15711C20.7581 2.23998 20.7761 2.32911 20.7761 2.42071V11.245V11.6468L21.0797 11.8359L21.1392 12.7152L21.1393 12.7153Z" fill="#02081F" stroke="#02081F" stroke-width="1.44777"/>
<path d="M3.54858 5.38135H17.7144M3.54858 8.03744H17.7144M3.54858 11.5789H8.86077" stroke="#02081F" stroke-width="1.77073" stroke-linecap="round"/>
<path fill-rule="evenodd" clip-rule="evenodd" d="M20.6583 17.7601L22.6177 21.556C22.6783 21.6734 22.662 21.7442 22.6377 21.7828C22.6223 21.8073 22.5846 21.8484 22.5051 21.8484C22.4654 21.8484 22.4196 21.8379 22.3691 21.8172L20.7563 21.1565C20.7167 21.1403 20.6695 21.1317 20.6199 21.1317C20.5015 21.1317 20.3808 21.1797 20.3124 21.2538L19.5377 22.0941C19.4731 22.1642 19.3932 22.2028 19.3127 22.2028C19.2064 22.2028 19.1111 22.1357 19.0579 22.0232L17.54 18.8195L17.5301 18.8196L16.0123 22.0232C15.9591 22.1357 15.8638 22.2028 15.7575 22.2028C15.677 22.2028 15.5971 22.1642 15.5325 22.0942L14.7578 21.2537C14.6895 21.1797 14.5687 21.1317 14.4503 21.1317C14.4007 21.1317 14.3535 21.1403 14.3138 21.1565L12.7011 21.8172C12.6505 21.8379 12.6048 21.8484 12.5651 21.8484C12.4856 21.8484 12.4479 21.8073 12.4325 21.7828C12.4082 21.7442 12.3919 21.6734 12.4525 21.556L14.4213 17.742L13.7095 17.464C13.5104 17.3862 13.3433 17.1614 13.3291 16.9521L13.2951 16.4498C12.6835 15.999 12.537 15.6829 12.7795 14.9832L12.5648 14.6497C12.4506 14.4723 12.4506 14.1941 12.5648 14.0167L13.0842 13.2095C13.1712 13.0744 13.2538 12.8257 13.2646 12.6662L13.3292 11.7144C13.3433 11.5051 13.5104 11.2802 13.7096 11.2024L14.6153 10.8487C14.7668 10.7895 14.983 10.6358 15.0873 10.513L15.7107 9.77907C15.8176 9.65317 16.0134 9.56861 16.198 9.56861C16.2429 9.56861 16.2859 9.57365 16.3258 9.58357L17.2712 9.81906C17.4219 9.85654 17.704 9.85654 17.8546 9.81906L18.8002 9.58357C18.8401 9.57365 18.8831 9.56861 18.928 9.56861C19.1125 9.56861 19.3083 9.65317 19.4153 9.77907L20.0012 10.4688C20.8691 10.3775 21.1578 10.6029 21.5 11.245C21.6604 11.3449 21.7848 11.5352 21.797 11.7144L21.8615 12.6662C21.8723 12.8256 21.9549 13.0744 22.0418 13.2095L22.5613 14.0167C22.6755 14.1942 22.6755 14.4723 22.5612 14.6497L22.0418 15.4569C21.9548 15.592 21.8722 15.8407 21.8614 16.0002L21.7969 16.952C21.7827 17.1613 21.6156 17.3862 21.4165 17.464L20.6583 17.7601ZM14.3764 14.3332C14.3764 16.0552 15.8031 17.4511 17.5629 17.4511C19.3228 17.4511 20.7496 16.0552 20.7495 14.3332C20.7495 12.6112 19.3228 11.2153 17.5629 11.2153C15.8031 11.2153 14.3764 12.6112 14.3764 14.3332Z" fill="url(#paint0_linear_114_5926)"/>
<defs>
<linearGradient id="paint0_linear_114_5926" x1="0.00708008" y1="0.954102" x2="24.1657" y2="2.83263" gradientUnits="userSpaceOnUse">
<stop stop-color="#C6FF4C"/>
<stop offset="1" stop-color="#97DE00"/>
</linearGradient>
</defs>
</svg>
